<?xml version="1.0" encoding="utf-8"?>
<!-- Generator: Adobe Illustrator 24.0.3, SVG Export Plug-In . SVG Version: 6.00 Build 0)  -->
<!DOCTYPE svg PUBLIC "-//W3C//DTD SVG 1.1//EN" "http://www.w3.org/Graphics/SVG/1.1/DTD/svg11.dtd" [
	<!ENTITY ns_extend "http://ns.adobe.com/Extensibility/1.0/">
	<!ENTITY ns_ai "http://ns.adobe.com/AdobeIllustrator/10.0/">
	<!ENTITY ns_graphs "http://ns.adobe.com/Graphs/1.0/">
	<!ENTITY ns_vars "http://ns.adobe.com/Variables/1.0/">
	<!ENTITY ns_imrep "http://ns.adobe.com/ImageReplacement/1.0/">
	<!ENTITY ns_sfw "http://ns.adobe.com/SaveForWeb/1.0/">
	<!ENTITY ns_custom "http://ns.adobe.com/GenericCustomNamespace/1.0/">
	<!ENTITY ns_adobe_xpath "http://ns.adobe.com/XPath/1.0/">
]>
<svg version="1.1" id="Слой_1" xmlns:x="&ns_extend;" xmlns:i="&ns_ai;" xmlns:graph="&ns_graphs;"
	 xmlns="http://www.w3.org/2000/svg" xmlns:xlink="http://www.w3.org/1999/xlink" x="0px" y="0px" viewBox="0 0 64 64"
	 style="enable-background:new 0 0 64 64;" xml:space="preserve">
<style type="text/css">
	.st0{fill:#FFCC00;}
	.st1{fill:#D7AC00;}
</style>
<metadata>
	<sfw  xmlns="&ns_sfw;">
		<slices></slices>
		<sliceSourceBounds  bottomLeftOrigin="true" height="64" width="64" x="7" y="0"></sliceSourceBounds>
	</sfw>
</metadata>
<path class="st0" d="M56,32c0.1-6.4-2.4-12.5-7-17c-4.5-4.6-10.6-7.1-17-7c-6.4-0.1-12.5,2.4-17,7c-4.6,4.5-7.1,10.6-7,17
	c-0.1,6.4,2.4,12.5,7,17c4.5,4.6,10.6,7.1,17,7c6.4,0.1,12.5-2.4,17-7C53.6,44.6,56.1,38.4,56,32 M64,32c0.1,8.5-3.3,16.7-9.4,22.7
	C48.7,60.8,40.5,64.1,32,64c-8.5,0.1-16.7-3.2-22.6-9.3C3.2,48.7-0.1,40.5,0,32c-0.1-8.5,3.3-16.7,9.4-22.6C15.3,3.2,23.5-0.1,32,0
	c8.5-0.1,16.7,3.2,22.6,9.4C60.7,15.3,64.1,23.5,64,32 M38.2,20.8c1.3,0.4,2.4,1,3.5,1.7l0.2,0.4v0.4l-2.3,4.7l-0.2,0.2l-0.2,0.1
	l-0.3,0c-0.8-0.5-1.7-0.9-2.5-1.3l-2.5-0.9l0,0l-2.2-0.3l-1.5,0.3c-0.3,0.2-0.5,0.5-0.5,0.9V27c0,0.5,0.3,0.9,0.7,1.1l2.2,1l3,0.9
	c1.1,0.4,2.1,0.8,3.1,1.4c1,0.5,1.9,1.3,2.5,2.3c0.7,1.1,1,2.4,1,3.8c0,1.4-0.4,2.7-1.1,3.9c-0.7,1.1-1.7,1.9-2.9,2.5h0
	c-1.1,0.6-2.3,1-3.5,1.2v4.6l-0.2,0.4L34,50h-4.4l-0.4-0.2l-0.2-0.4v-4.7c-1.4-0.3-2.7-0.7-4-1.2c-1.3-0.6-2.6-1.4-3.8-2.3l-0.2-0.3
	v-0.4l2.3-4.7l0.2-0.2H24l0.3,0.1c0.8,0.7,1.6,1.3,2.5,1.8l0,0c0.9,0.5,1.9,0.8,2.9,1.1l2.6,0.5l1.9-0.5c0.4-0.2,0.6-0.6,0.5-1
	c0-0.5-0.3-0.9-0.7-1.2c-0.6-0.4-1.4-0.8-2.1-1l-3-0.8l-3-1.2c-1-0.5-1.8-1.3-2.5-2.2c-0.7-1.1-1-2.4-1-3.6v0c0-1.8,0.6-3.6,1.9-4.9
	c1.3-1.2,2.9-2.1,4.6-2.4v-4.6l0.2-0.4c0.1-0.1,0.3-0.1,0.4-0.1H34l0.3,0.1l0.2,0.4v4.3C35.8,20.1,37.1,20.4,38.2,20.8"/>
<path class="st1" d="M38.2,20.8c-1.2-0.4-2.4-0.7-3.7-0.9v-4.3l-0.2-0.4L34,15h-4.4c-0.1,0-0.3,0.1-0.4,0.1l-0.2,0.4v4.6
	c-1.7,0.3-3.4,1.2-4.6,2.4c-1.3,1.3-1.9,3.1-1.9,4.9v0c0,1.3,0.3,2.6,1,3.6c0.7,0.9,1.5,1.7,2.5,2.2l3,1.2l3,0.8
	c0.7,0.2,1.5,0.5,2.1,1c0.4,0.3,0.6,0.7,0.7,1.2c0,0.4-0.2,0.8-0.5,1l-1.9,0.5l-2.6-0.5c-1-0.3-1.9-0.7-2.8-1.2l0,0
	c-0.9-0.5-1.8-1.1-2.5-1.8L24,35.5h-0.4l-0.2,0.2l-2.4,4.7v0.4l0.2,0.3c1.1,0.9,2.4,1.7,3.8,2.3c1.3,0.6,2.6,1,4,1.2v4.8l0.2,0.4
	l0.4,0.2H34l0.3-0.2l0.2-0.4v-4.6c1.2-0.2,2.4-0.6,3.5-1.2h0c1.2-0.6,2.1-1.5,2.9-2.5c0.7-1.2,1.1-2.5,1.1-3.9c0-1.3-0.3-2.6-1-3.8
	c-0.6-1-1.4-1.8-2.5-2.3c-1-0.5-2-1-3.1-1.4l-3-0.9l-2.2-1c-0.4-0.2-0.6-0.6-0.7-1.1v0c0-0.3,0.2-0.7,0.5-0.9l1.5-0.3l2.2,0.3l0,0
	l2.5,0.9c0.9,0.3,1.7,0.8,2.6,1.2l0.3,0l0.2-0.1l0.2-0.2l2.2-4.7v-0.4l-0.2-0.4C40.7,21.8,39.5,21.2,38.2,20.8 M56,32
	c0.1,6.4-2.4,12.5-7,17c-4.5,4.6-10.6,7.1-17,7c-6.4,0.1-12.5-2.4-17-7c-4.6-4.5-7.1-10.6-7-17c-0.1-6.4,2.4-12.5,7-17
	c4.5-4.6,10.6-7.1,17-7c6.4-0.1,12.5,2.4,17,7C53.6,19.5,56.1,25.6,56,32"/>
</svg>
